<svg id="aa0ff54a-60a6-43c4-abdf-432c3d7e4d9e" data-name="레이어 1" xmlns="http://www.w3.org/2000/svg" width="508.7708" height="512" viewBox="0 0 508.7708 512"><defs><style>.ec7a1b75-314a-44ec-9449-078a0bbfce21{fill:#2442a3;}.ea76cee6-2452-4fec-aaa6-9110da5333e8{fill:#4871e5;}.f8b669e2-71c5-4c03-ab32-5b5b1adcccf7{fill:#345ac6;}</style></defs><path class="ec7a1b75-314a-44ec-9449-078a0bbfce21" d="M497.0265,419.0469c8.8706,16.01,1.6633,32.9847-16.0161,37.7219L288.1443,508.4471c-17.6793,4.7372-46.6093,4.7372-64.2886,0L30.99,456.7688c-17.6794-4.7372-24.8867-21.712-16.0161-37.7219L239.8718,13.1416c8.87-16.01,23.3859-16.01,32.2564,0Z" transform="translate(-1.6146 0)"/><path class="ea76cee6-2452-4fec-aaa6-9110da5333e8" d="M1.7456,415.0041C.15,433.2375,13.31,452.0316,30.99,456.7688l192.8661,51.6783c17.6793,4.7372,46.6093,4.7372,64.2886,0L481.01,456.7688c17.6794-4.7372,21.4476-19.0934,8.3739-31.9027L63.2207,7.3224C50.1469-5.4869,38.1451-1.049,36.55,17.1844Z" transform="translate(-1.6146 0)"/><path class="f8b669e2-71c5-4c03-ab32-5b5b1adcccf7" d="M510.2544,415.0041c1.5952,18.2334-11.5646,37.0275-29.244,41.7647L288.1443,508.4471c-17.6793,4.7372-46.6093,4.7372-64.2886,0L30.99,456.7688C13.31,452.0316,9.542,437.6754,22.6157,424.8661L448.7793,7.3224c13.0738-12.8093,25.0756-8.3714,26.6708,9.862Z" transform="translate(-1.6146 0)"/></svg>